# xmcd CD database file
#
# Track frame offsets:
#	150
#	36681
#	64216
#	99341
#	135474
#	171101
#	197072
#	225601
#
# Disc length: 3420 seconds
#
# Revision: 1
# Processed by: cddbd v1.5.2PL0 Copyright (c) Steve Scherf et al.
# Submitted via: CDex 1.70beta2
#
DISCID=6c0d5a08
DTITLE=Michel Herr - Notes of Life
DYEAR=1998
DGENRE=Jazz
TTITLE0=Le Coeur à L'Endroit
TTITLE1=Distant Echoes
TTITLE2=The Out Side In
TTITLE3=Notes of Life (in memory of Jacques Pelzer)
TTITLE4=Strange Ideas
TTITLE5=Blank Page
TTITLE6=Tape or Glue?
TTITLE7=Beauty where it is
EXTD=Michel Herr - piano\nBert Joris - trumpet\nWolfgang Engstfeld - tenor sax\nricardo del fra - double bass\ndre pallemaerts - drums YEAR: 1998
EXTT0=
EXTT1=
EXTT2=
EXTT3=
EXTT4=
EXTT5=
EXTT6=
EXTT7=
PLAYORDER=
